<?xml version="1.0" encoding="UTF-8"?>
<svg width="275px" height="110px" viewBox="0 0 275 110" version="1.1" xmlns="http://www.w3.org/2000/svg" xmlns:xlink="http://www.w3.org/1999/xlink">
    <title>Group 2</title>
    <g id="UI-Kit" stroke="none" stroke-width="1" fill="none" fill-rule="evenodd">
        <g id="Artboard" transform="translate(-3023.000000, -2599.000000)">
            <g id="Group-2" transform="translate(3023.000000, 2599.000000)">
                <text id="Coffee-Studio" font-family="Prompt-Medium, Prompt" font-size="48" font-weight="400" line-spacing="55" letter-spacing="-0.96" fill="#2E2E2E">
                    <tspan x="110" y="52">Coffee </tspan>
                    <tspan x="110" y="107">Studio</tspan>
                </text>
                <g id="coffee-beans" transform="translate(0.000000, 7.000000)" fill="#FCC340" fill-rule="nonzero">
                    <path d="M36.5194251,15.0244394 C35.6259235,15.9219791 34.8273304,16.8847669 34,17.8287769 C42.2795425,19.6488934 50.4305237,23.9099311 57.6815751,30 C61.7651008,19.7977879 69.7646442,11.9951479 80.3259623,8.38886657 L87,6.1093584 C74.5147985,-4.57254054 52.5166213,-1.02733442 36.5194251,15.0244394 Z" id="Path"></path>
                    <path d="M91.5356116,10 L82.6920937,13.0497674 C73.1778606,16.3317342 66.1006589,23.6752082 63,33.2207042 C70.8689665,41.2792921 76.2359937,51.0173115 78.3725461,61 C79.3310571,60.1496095 80.306168,59.3243473 81.2165576,58.4032956 C96.1836157,43.2400458 100.093572,22.7551012 91.5356116,10 Z" id="Path"></path>
                    <path d="M60.3126636,83.2228864 C56.7176455,72.1170889 47.4699479,64.075529 36.1782369,61.8085207 C23.0644319,59.1665243 12.5753322,49.546067 8.26781663,36.6993073 L6.02114062,30 C-4.50778113,42.5321188 -1.01072906,64.9143182 14.8087342,80.9744758 C24.6563805,90.9703008 36.9262565,96 47.768707,96 C53.4301735,96 58.6679929,94.4994781 63,91.5221558 L60.3126636,83.2228864 Z" id="Path"></path>
                    <path d="M58.9482471,38.2653915 C43.9299829,23.0334489 23.6357496,18.7486346 11,27.4592997 L14.0209088,36.4600103 C17.6910668,47.3904344 26.5701916,55.5749176 37.7369421,57.82277 C51.0266199,60.4906947 61.9133829,69.992531 66.1429546,83.0510308 L68.0708637,89 C78.6248607,76.4676821 74.7901913,54.3355807 58.9482471,38.2653915 Z" id="Path"></path>
                </g>
            </g>
        </g>
    </g>
</svg>