<?xml version="1.0" encoding="UTF-8"?>
<svg width="72px" height="72px" viewBox="0 0 72 72" version="1.1" xmlns="http://www.w3.org/2000/svg" xmlns:xlink="http://www.w3.org/1999/xlink">
    <title>icon-compass</title>
    <g id="UI-Kit" stroke="none" stroke-width="1" fill="none" fill-rule="evenodd">
        <g id="Artboard" transform="translate(-3086.000000, -910.000000)" fill-rule="nonzero">
            <g id="icon-compass" transform="translate(3086.000000, 910.000000)">
                <circle id="Oval" fill="#FCC340" cx="36" cy="36" r="36"></circle>
                <g id="compass" transform="translate(16.000000, 16.000000)" fill="#FFFFFF">
                    <path d="M20,0 C8.97221328,0 0,8.97221328 0,20 C0,31.0277867 8.97221328,40 20,40 C31.0277867,40 40,31.0277867 40,20 C40,8.97221328 31.0278682,0 20,0 Z M20,36.5217888 C10.8904224,36.5217888 3.47821125,29.1095776 3.47821125,20 C3.47821125,10.8904224 10.8904224,3.47829277 20,3.47829277 C29.1095776,3.47829277 36.5217888,10.8904224 36.5217888,20 C36.5217888,29.1095776 29.1095776,36.5217888 20,36.5217888 Z" id="Shape"></path>
                    <path d="M29.3113442,10.6904493 C29.0591971,10.4365087 28.678327,10.3634652 28.3530548,10.5061284 L16.1791524,15.7235268 C15.9739619,15.8105106 15.8104291,15.9756739 15.7217333,16.1809459 L10.5043349,28.3548483 C10.3634652,28.6818324 10.4365087,29.0609091 10.6886558,29.3131377 C10.8556126,29.476589 11.0782487,29.5652847 11.3043088,29.5652847 C11.4190916,29.5652847 11.5355863,29.5409097 11.6469452,29.4957466 L23.8208476,24.2783482 C24.0260381,24.1896524 24.1895709,24.0262011 24.2782667,23.8209291 L29.4956651,11.6470267 C29.6348229,11.3200426 29.5617793,10.9408844 29.3113442,10.6904493 Z M20,21.7391871 C19.0417107,21.7391871 18.2608944,20.9582893 18.2608944,20.0000815 C18.2608944,19.0417922 19.0417922,18.2609759 20,18.2609759 C20.9582893,18.2609759 21.7391056,19.0418737 21.7391056,20.0000815 C21.7391871,20.9582893 20.9582893,21.7391871 20,21.7391871 Z" id="Shape"></path>
                </g>
            </g>
        </g>
    </g>
</svg>