<?xml version="1.0" encoding="UTF-8"?>
<svg width="72px" height="72px" viewBox="0 0 72 72" version="1.1" xmlns="http://www.w3.org/2000/svg" xmlns:xlink="http://www.w3.org/1999/xlink">
    <title>icon-gift</title>
    <g id="UI-Kit" stroke="none" stroke-width="1" fill="none" fill-rule="evenodd">
        <g id="Artboard" transform="translate(-3503.000000, -910.000000)" fill-rule="nonzero">
            <g id="icon-gift" transform="translate(3503.000000, 910.000000)">
                <circle id="Oval" fill="#FCC340" cx="36" cy="36" r="36"></circle>
                <g id="gift" transform="translate(19.000000, 16.000000)" fill="#FFFFFF">
                    <path d="M1.95727874e-05,14.8909584 L1.95727874e-05,35.4555275 C1.95727874e-05,36.663126 0.476228817,37.8210686 1.32348891,38.6737037 C2.170749,39.5263389 3.31939346,40.0035435 4.51582372,39.9999802 L30.2344181,39.9999802 C32.7210382,39.9999802 34.7368421,37.9653483 34.7368421,35.4555275 L34.7368421,14.8909584 C34.7368421,12.3789468 32.7231978,10.3404727 30.2344181,10.3330408 L27.375312,10.3330408 C27.7695959,9.92257066 28.1189751,9.47046952 28.4174161,8.98454442 C29.5793685,7.02047101 29.640165,4.58637523 28.5777398,2.56570186 C27.6518686,0.933776642 25.910981,-0.0510457368 24.0485951,0.00355882277 L24.0485951,0.00355882277 C22.022844,-0.0616157825 20.07025,0.771052347 18.7044716,2.28251763 C18.1706351,2.85298561 17.7207021,3.49785155 17.3684407,4.19738243 C17.0367664,3.50197977 16.6094724,2.85732857 16.0992114,2.28251763 C14.733433,0.771052347 12.780839,-0.0616157825 10.7550879,0.00355882277 L10.7550879,0.00355882277 C8.89222167,-0.0528269592 7.1485018,0.925519958 6.21258293,2.5522169 C5.15015769,4.57289027 5.21095421,7.00698604 6.37290664,8.97105946 C6.67134765,9.45698455 7.02072676,9.9090857 7.41501072,10.3195558 L4.51582372,10.3195558 C3.31584483,10.3195505 2.16520805,10.8016089 1.3179491,11.6593031 C0.470690153,12.5169972 -0.00351086857,13.6797887 1.95727874e-05,14.8909584 Z M32.0647805,14.8909584 L32.0647805,35.4555275 C32.0647805,35.945499 31.8719392,36.4154026 31.5286797,36.7618648 C31.1854201,37.108327 30.7198603,37.3029675 30.2344181,37.3029675 L18.7044716,37.3029675 L18.7979938,13.0300334 L30.274499,13.0300334 C31.2718295,13.0592235 32.0651996,13.8838995 32.0647805,14.8909584 L32.0647805,14.8909584 Z M24.0485951,2.75449135 L24.0485951,2.75449135 C24.9581634,2.69261975 25.8234677,3.1580726 26.2797667,3.95465309 C26.8773082,5.13913484 26.8112842,6.55395482 26.1060827,7.67650298 C25.5315894,8.68787523 24.0218745,10.3734956 20.3878705,10.3734956 L18.7044716,10.3734956 C18.7044716,8.74181508 19.0117587,5.84254796 20.5615545,4.12995761 C21.4505576,3.14666865 22.7320717,2.62135095 24.0485951,2.70055149 L24.0485951,2.75449135 Z M8.64415912,7.62256312 C7.93895762,6.50001496 7.87293357,5.08519499 8.47047511,3.90071323 C8.92458805,3.10868466 9.78338932,2.64394699 10.6882864,2.70055149 L10.6882864,2.70055149 C11.9692619,2.62117833 13.220023,3.11431542 14.1085254,4.04904783 C15.6716815,5.80209307 15.952248,8.70136019 16.0324099,10.3330408 L14.3623713,10.3330408 C10.6882864,10.3330408 9.2186524,8.63393537 8.64415912,7.62256312 Z M2.67210111,14.8909584 C2.67210111,13.8631979 3.49756384,13.0300334 4.51582372,13.0300334 L16.0324099,13.0300334 L15.9388877,37.3030168 L4.51582372,37.3030168 C4.02807074,37.306561 3.55907128,37.1135082 3.21291675,36.7666557 C2.86676222,36.4198032 2.67210111,35.9478444 2.67210111,35.4555275 L2.67210111,14.8909584 Z" id="Shape"></path>
                </g>
            </g>
        </g>
    </g>
</svg>