<?xml version="1.0" encoding="UTF-8"?>
<svg width="72px" height="72px" viewBox="0 0 72 72" version="1.1" xmlns="http://www.w3.org/2000/svg" xmlns:xlink="http://www.w3.org/1999/xlink">
    <title>icon-beans</title>
    <g id="UI-Kit" stroke="none" stroke-width="1" fill="none" fill-rule="evenodd">
        <g id="Artboard" transform="translate(-3364.000000, -910.000000)" fill-rule="nonzero">
            <g id="icon-beans" transform="translate(3364.000000, 910.000000)">
                <circle id="Oval" fill="#FCC340" cx="36" cy="36" r="36"></circle>
                <g id="coffee-beans" transform="translate(16.000178, 16.039302)" fill="#FFFFFF">
                    <path d="M15.5703969,6.18938464 C15.2011202,6.55913013 14.8710684,6.95575483 14.5291398,7.34464395 C17.9510046,8.09444905 21.3197361,9.84980249 24.3165343,12.3586335 C26.0042208,8.1557868 29.3103644,4.94145454 33.6752677,3.45583091 L36.4335909,2.51677737 C31.2735629,-1.88367842 22.1819026,-0.423214984 15.5703969,6.18938464 Z" id="Path"></path>
                    <path d="M38.1358892,4.41387179 L34.4310894,5.67516336 C30.445308,7.03248562 27.480468,10.0695244 26.1815143,14.017253 C29.4780469,17.3500413 31.7264464,21.3773917 32.6215087,25.5059299 C33.023056,25.1542341 33.4315576,24.8129306 33.8129455,24.4320114 C40.0830696,18.1609498 41.7210609,9.68899602 38.1358892,4.41387179 Z" id="Path"></path>
                    <path d="M25.2070645,34.7390968 C23.7045633,30.1663483 19.8395821,26.8552821 15.1203263,25.9218545 C9.63954481,24.8340276 5.25573225,20.8728595 3.4554499,15.5832799 L2.5164745,12.8248785 C-1.88398129,17.9849065 -0.422423935,27.2006488 6.1891599,33.8133266 C10.3048835,37.9290502 15.4329535,40 19.9644454,40 C22.3305978,40 24.5196911,39.3821687 26.3302095,38.1562733 L25.2070645,34.7390968 Z" id="Path"></path>
                    <path d="M24.4317086,15.5706216 C18.1616627,9.30057572 9.68892756,7.53678346 4.41356892,11.122424 L5.67478235,14.8274582 C7.20705392,19.3268357 10.9140416,22.6958798 15.5761009,23.6211811 C21.1244711,24.7194003 25.6696371,28.6307168 27.4354609,34.0060912 L28.2403528,36.4549127 C32.6465907,31.2961349 31.0456365,22.1857216 24.4317086,15.5706216 Z" id="Path"></path>
                </g>
            </g>
        </g>
    </g>
</svg>