<?xml version="1.0" encoding="UTF-8"?>
<svg width="72px" height="72px" viewBox="0 0 72 72" version="1.1" xmlns="http://www.w3.org/2000/svg" xmlns:xlink="http://www.w3.org/1999/xlink">
    <title>icon-coffee</title>
    <g id="UI-Kit" stroke="none" stroke-width="1" fill="none" fill-rule="evenodd">
        <g id="Artboard" transform="translate(-3225.000000, -910.000000)" fill-rule="nonzero">
            <g id="icon-coffee" transform="translate(3225.000000, 910.000000)">
                <circle id="Oval" fill="#FCC340" cx="36" cy="36" r="36"></circle>
                <g id="coffee" transform="translate(19.163000, 15.000179)" fill="#FFFFFF">
                    <path d="M24.4343054,7.70912937 C25.9719622,6.46701956 26.3200873,5.1392066 26.3412592,4.24397191 C26.392978,2.06608052 24.6732117,0.472329969 24.4768835,0.297876783 C23.9906334,-0.134623367 23.2457894,-0.0910296021 22.8132111,0.395298692 C22.3807109,0.881626987 22.4243047,1.62639287 22.910633,2.05897115 C22.9216486,2.0688149 24.0111802,3.08819026 23.9850865,4.18811251 C23.9711802,4.77412834 23.6336801,5.32615979 22.9532893,5.87576935 C21.4156325,7.11787916 21.0675073,8.44569212 21.0463355,9.34092681 C20.9945386,11.5188182 22.7143829,13.1125688 22.910633,13.2871001 C23.1357112,13.4872564 23.4166488,13.5858502 23.6964145,13.5858502 C24.0211021,13.5858502 24.3443054,13.4530376 24.5766492,13.1917094 C25.0091493,12.7053811 24.9678993,11.9626465 24.481571,11.5301463 C24.1722741,11.2488962 23.375555,10.315849 23.4026644,9.38795808 C23.4197738,8.8052235 23.7571958,8.25600456 24.4343054,7.70912937 Z" id="Path"></path>
                    <path d="M16.9573497,7.70912937 C18.4950064,6.46701956 18.8431316,5.1392066 18.8643035,4.24397191 C18.9160222,2.06608052 17.196256,0.472329969 16.9999278,0.297876783 C16.5137558,-0.134623367 15.7688336,-0.0910296021 15.3362553,0.395298692 C14.9037552,0.881626987 14.947349,1.62639287 15.4336773,2.05897115 C15.4446929,2.0688149 16.5342245,3.08819026 16.5081308,4.18811251 C16.4942245,4.77412834 16.1567244,5.32615979 15.4763335,5.87576935 C13.9386767,7.11787916 13.5905516,8.44569212 13.5693797,9.34092681 C13.517661,11.5188182 15.2374272,13.1125688 15.4336773,13.2871001 C15.6587555,13.4872564 15.9396931,13.5858502 16.2194588,13.5858502 C16.5441464,13.5858502 16.8673496,13.4530376 17.0996935,13.1917094 C17.5321936,12.7053811 17.4909436,11.9626465 17.0046153,11.5301463 C16.6953183,11.2488962 15.8985993,10.315849 15.9257087,9.38795808 C15.9428181,8.8052235 16.2802401,8.25600456 16.9573497,7.70912937 Z" id="Path"></path>
                    <path d="M33.827668,19.2303053 L32.4329801,19.2303053 L32.4329801,18.3660862 C32.4329801,17.7153047 31.9054017,17.1876483 31.2545421,17.1876483 L1.17843791,17.1876483 C0.527656434,17.1876483 0,17.7152266 0,18.3660862 L0,24.5854634 C0,30.0810122 3.04179794,34.9132795 7.60851828,37.6431242 L1.17914104,37.6431242 C0.528359559,37.6431242 0.000703125245,38.1707025 0.000703125245,38.8215621 C0.000703125245,39.4724217 0.528203309,40 1.17914104,40 L31.2546203,40 C31.9054017,40 32.4330582,39.4724217 32.4330582,38.8215621 C32.4330582,38.1707025 31.9054799,37.6431242 31.2546203,37.6431242 L24.8245399,37.6431242 C27.4214158,36.0907799 29.5250884,33.858826 30.8566514,31.2111688 L33.8277462,31.2111688 C37.1308723,31.2111688 39.818217,28.5238241 39.818217,25.220698 C39.818217,21.9175718 37.1307942,19.2303053 33.827668,19.2303053 Z M30.0761824,24.5854634 C30.0761824,31.7854659 23.8586802,37.6431242 16.21649,37.6431242 C8.57429986,37.6431242 2.35687582,31.7854659 2.35687582,24.5854634 L2.35687582,19.5445241 L30.0761824,19.5445241 L30.0761824,24.5854634 L30.0761824,24.5854634 Z M33.827668,28.8543711 L31.7998548,28.8543711 C32.2116519,27.4981988 32.4329801,26.0659326 32.4329801,24.5854634 L32.4329801,21.5870248 L33.827668,21.5870248 C35.8312625,21.5870248 37.4613412,23.2171035 37.4613412,25.220698 C37.4613412,27.2242924 35.8312625,28.8543711 33.827668,28.8543711 Z" id="Shape"></path>
                    <path d="M9.48039393,7.70920749 C11.0180507,6.46709768 11.3661758,5.13928472 11.3873477,4.24405003 C11.4390665,2.06615865 9.71930026,0.472408094 9.52297207,0.297954909 C9.0367219,-0.134545242 8.29187789,-0.0909514771 7.85929962,0.395376817 C7.42679946,0.881626987 7.47039323,1.626471 7.95672152,2.05904927 C7.96773715,2.06889303 9.05726878,3.08826838 9.03117502,4.18819064 C9.01726877,4.77420647 8.67976865,5.32623791 7.99937779,5.87584748 C6.461721,7.11795729 6.11359588,8.44577025 6.092424,9.34100494 C6.04078336,11.5188182 7.76054958,13.1125688 7.95679965,13.2871001 C8.18133098,13.4867876 8.46094045,13.5849908 8.7395343,13.5849908 C9.06430004,13.5849908 9.38765952,13.4514751 9.62055023,13.1896782 C10.0530504,12.7033499 10.0094566,11.958584 9.52312832,11.5260057 C9.51211269,11.5161619 8.42258106,10.4967866 8.44867482,9.39686433 C8.46242483,8.8108485 8.79992494,8.25873893 9.48039393,7.70920749 Z" id="Path"></path>
                </g>
            </g>
        </g>
    </g>
</svg>